<?xml version="1.0" encoding="UTF-8"?>
<svg xmlns="http://www.w3.org/2000/svg" viewBox="0 0 1440 600" role="img" aria-label="Classical sonata form and public music">
  <defs>
    <filter id="grain" x="0" y="0" width="100%" height="100%">
      <feTurbulence type="fractalNoise" baseFrequency="0.78" numOctaves="2" seed="19"/>
      <feColorMatrix type="saturate" values="0"/>
      <feComponentTransfer><feFuncA type="table" tableValues="0 0.055"/></feComponentTransfer>
    </filter>
    <filter id="softShadow" x="-20%" y="-20%" width="140%" height="140%">
      <feDropShadow dx="0" dy="18" stdDeviation="18" flood-color="#34281e" flood-opacity="0.18"/>
    </filter>
    <linearGradient id="warmPaper" x1="0" y1="0" x2="1" y2="1">
      <stop offset="0" stop-color="#fbf2df"/>
      <stop offset="0.55" stop-color="#efe1c8"/>
      <stop offset="1" stop-color="#dcc8a9"/>
    </linearGradient>
    <linearGradient id="stage" x1="0" y1="0" x2="1" y2="0">
      <stop offset="0" stop-color="#6e2f2d"/>
      <stop offset="0.5" stop-color="#b86947"/>
      <stop offset="1" stop-color="#2f4053"/>
    </linearGradient>
    <pattern id="staff" width="160" height="72" patternUnits="userSpaceOnUse">
      <path d="M0 8H160 M0 20H160 M0 32H160 M0 44H160 M0 56H160" stroke="#6f655a" stroke-opacity=".25" stroke-width="2"/>
    </pattern>
    <pattern id="grid" width="48" height="48" patternUnits="userSpaceOnUse">
      <path d="M48 0H0V48" fill="none" stroke="#6f655a" stroke-opacity=".13" stroke-width="1"/>
    </pattern>
  </defs>
  <defs><marker id="arrow" markerWidth="10" markerHeight="10" refX="8" refY="3" orient="auto"><path d="M0 0L8 3L0 6Z" fill="#57483a"/></marker></defs>
  <rect width="1440" height="600" fill="#f9f3e8"/>
  <rect width="1440" height="600" fill="url(#grid)"/>
  <rect width="1440" height="600" filter="url(#grain)"/>
  <g transform="translate(120 96)" font-family="system-ui, sans-serif" filter="url(#softShadow)">
    <rect x="0" y="0" width="280" height="128" rx="8" fill="#e8d1a5" stroke="#9b6d38" stroke-width="3"/>
    <rect x="340" y="0" width="280" height="128" rx="8" fill="#d6e2dd" stroke="#3f697d" stroke-width="3"/>
    <rect x="680" y="0" width="280" height="128" rx="8" fill="#efe2cf" stroke="#8f5a3c" stroke-width="3"/>
    <rect x="1020" y="0" width="280" height="128" rx="8" fill="#e5dbe8" stroke="#6f6fa8" stroke-width="3"/>
    <text x="140" y="72" text-anchor="middle" font-size="30" fill="#34281e">theme A</text>
    <text x="480" y="72" text-anchor="middle" font-size="30" fill="#34281e">theme B</text>
    <text x="820" y="72" text-anchor="middle" font-size="30" fill="#34281e">development</text>
    <text x="1160" y="72" text-anchor="middle" font-size="30" fill="#34281e">return</text>
    <path d="M280 64H340M620 64H680M960 64H1020" stroke="#57483a" stroke-width="5" marker-end="url(#arrow)"/>
  </g>
  <g transform="translate(720 365)" fill="none" stroke="#4d5d61" stroke-width="5" opacity=".78">
    <circle cx="0" cy="0" r="120"/>
    <circle cx="0" cy="0" r="52" stroke-dasharray="10 14"/>
    <circle cx="0" cy="-120" r="28" fill="#fbf6eb"/><circle cx="120" cy="0" r="28" fill="#fbf6eb"/><circle cx="0" cy="120" r="28" fill="#fbf6eb"/><circle cx="-120" cy="0" r="28" fill="#fbf6eb"/>
    <path d="M-88-82C-18-22 18-22 88-82M-88 82C-18 22 18 22 88 82"/>
  </g>
  <path d="M132 476C300 418 430 428 552 476S816 534 990 458S1196 414 1328 478" fill="none" stroke="#b9852b" stroke-width="9" stroke-linecap="round" opacity=".45"/>
  <text x="105" y="536" font-family="Georgia, serif" font-size="25" fill="#57483a" letter-spacing="2">balance · phrase · argument · public form</text>
</svg>
