<?xml version="1.0" encoding="UTF-8"?>
<svg xmlns="http://www.w3.org/2000/svg" viewBox="0 0 1440 600" role="img" aria-label="Film, game, and screen media">
  <defs>
    <filter id="grain" x="0" y="0" width="100%" height="100%">
      <feTurbulence type="fractalNoise" baseFrequency="0.78" numOctaves="2" seed="19"/>
      <feColorMatrix type="saturate" values="0"/>
      <feComponentTransfer><feFuncA type="table" tableValues="0 0.055"/></feComponentTransfer>
    </filter>
    <filter id="softShadow" x="-20%" y="-20%" width="140%" height="140%">
      <feDropShadow dx="0" dy="18" stdDeviation="18" flood-color="#34281e" flood-opacity="0.18"/>
    </filter>
    <linearGradient id="warmPaper" x1="0" y1="0" x2="1" y2="1">
      <stop offset="0" stop-color="#fbf2df"/>
      <stop offset="0.55" stop-color="#efe1c8"/>
      <stop offset="1" stop-color="#dcc8a9"/>
    </linearGradient>
    <linearGradient id="stage" x1="0" y1="0" x2="1" y2="0">
      <stop offset="0" stop-color="#6e2f2d"/>
      <stop offset="0.5" stop-color="#b86947"/>
      <stop offset="1" stop-color="#2f4053"/>
    </linearGradient>
    <pattern id="staff" width="160" height="72" patternUnits="userSpaceOnUse">
      <path d="M0 8H160 M0 20H160 M0 32H160 M0 44H160 M0 56H160" stroke="#6f655a" stroke-opacity=".25" stroke-width="2"/>
    </pattern>
    <pattern id="grid" width="48" height="48" patternUnits="userSpaceOnUse">
      <path d="M48 0H0V48" fill="none" stroke="#6f655a" stroke-opacity=".13" stroke-width="1"/>
    </pattern>
  </defs>
  <rect width="1440" height="600" fill="#151a23"/>
  <rect width="1440" height="600" filter="url(#grain)"/>
  <g transform="translate(80 82)" filter="url(#softShadow)">
    <rect x="0" y="0" width="560" height="352" rx="12" fill="#242b36" stroke="#d8bf7a" stroke-width="4"/>
    <rect x="58" y="52" width="444" height="248" fill="#f1dfb8" opacity=".92"/>
    <rect x="20" y="18" width="36" height="22" fill="#f1dfb8"/><rect x="20" y="312" width="36" height="22" fill="#f1dfb8"/><rect x="96" y="18" width="36" height="22" fill="#f1dfb8"/><rect x="96" y="312" width="36" height="22" fill="#f1dfb8"/><rect x="172" y="18" width="36" height="22" fill="#f1dfb8"/><rect x="172" y="312" width="36" height="22" fill="#f1dfb8"/><rect x="248" y="18" width="36" height="22" fill="#f1dfb8"/><rect x="248" y="312" width="36" height="22" fill="#f1dfb8"/><rect x="324" y="18" width="36" height="22" fill="#f1dfb8"/><rect x="324" y="312" width="36" height="22" fill="#f1dfb8"/><rect x="400" y="18" width="36" height="22" fill="#f1dfb8"/><rect x="400" y="312" width="36" height="22" fill="#f1dfb8"/><rect x="476" y="18" width="36" height="22" fill="#f1dfb8"/><rect x="476" y="312" width="36" height="22" fill="#f1dfb8"/>
  </g>
  <g transform="translate(770 104)" filter="url(#softShadow)">
    <rect x="0" y="0" width="446" height="320" rx="22" fill="#263743" stroke="#3f7d72" stroke-width="5"/>
    <g fill="#e6d7b7">
      <rect x="42" y="44" width="22" height="22" rx="3" opacity=".95"/><rect x="76" y="44" width="22" height="22" rx="3" opacity=".35"/><rect x="110" y="44" width="22" height="22" rx="3" opacity=".35"/><rect x="144" y="44" width="22" height="22" rx="3" opacity=".95"/><rect x="178" y="44" width="22" height="22" rx="3" opacity=".35"/><rect x="212" y="44" width="22" height="22" rx="3" opacity=".35"/><rect x="246" y="44" width="22" height="22" rx="3" opacity=".95"/><rect x="280" y="44" width="22" height="22" rx="3" opacity=".35"/><rect x="314" y="44" width="22" height="22" rx="3" opacity=".35"/><rect x="348" y="44" width="22" height="22" rx="3" opacity=".95"/><rect x="42" y="74" width="22" height="22" rx="3" opacity=".35"/><rect x="76" y="74" width="22" height="22" rx="3" opacity=".35"/><rect x="110" y="74" width="22" height="22" rx="3" opacity=".95"/><rect x="144" y="74" width="22" height="22" rx="3" opacity=".35"/><rect x="178" y="74" width="22" height="22" rx="3" opacity=".35"/><rect x="212" y="74" width="22" height="22" rx="3" opacity=".95"/><rect x="246" y="74" width="22" height="22" rx="3" opacity=".35"/><rect x="280" y="74" width="22" height="22" rx="3" opacity=".35"/><rect x="314" y="74" width="22" height="22" rx="3" opacity=".95"/><rect x="348" y="74" width="22" height="22" rx="3" opacity=".35"/><rect x="42" y="104" width="22" height="22" rx="3" opacity=".35"/><rect x="76" y="104" width="22" height="22" rx="3" opacity=".95"/><rect x="110" y="104" width="22" height="22" rx="3" opacity=".35"/><rect x="144" y="104" width="22" height="22" rx="3" opacity=".35"/><rect x="178" y="104" width="22" height="22" rx="3" opacity=".95"/><rect x="212" y="104" width="22" height="22" rx="3" opacity=".35"/><rect x="246" y="104" width="22" height="22" rx="3" opacity=".35"/><rect x="280" y="104" width="22" height="22" rx="3" opacity=".95"/><rect x="314" y="104" width="22" height="22" rx="3" opacity=".35"/><rect x="348" y="104" width="22" height="22" rx="3" opacity=".35"/><rect x="42" y="134" width="22" height="22" rx="3" opacity=".95"/><rect x="76" y="134" width="22" height="22" rx="3" opacity=".35"/><rect x="110" y="134" width="22" height="22" rx="3" opacity=".35"/><rect x="144" y="134" width="22" height="22" rx="3" opacity=".95"/><rect x="178" y="134" width="22" height="22" rx="3" opacity=".35"/><rect x="212" y="134" width="22" height="22" rx="3" opacity=".35"/><rect x="246" y="134" width="22" height="22" rx="3" opacity=".95"/><rect x="280" y="134" width="22" height="22" rx="3" opacity=".35"/><rect x="314" y="134" width="22" height="22" rx="3" opacity=".35"/><rect x="348" y="134" width="22" height="22" rx="3" opacity=".95"/><rect x="42" y="164" width="22" height="22" rx="3" opacity=".35"/><rect x="76" y="164" width="22" height="22" rx="3" opacity=".35"/><rect x="110" y="164" width="22" height="22" rx="3" opacity=".95"/><rect x="144" y="164" width="22" height="22" rx="3" opacity=".35"/><rect x="178" y="164" width="22" height="22" rx="3" opacity=".35"/><rect x="212" y="164" width="22" height="22" rx="3" opacity=".95"/><rect x="246" y="164" width="22" height="22" rx="3" opacity=".35"/><rect x="280" y="164" width="22" height="22" rx="3" opacity=".35"/><rect x="314" y="164" width="22" height="22" rx="3" opacity=".95"/><rect x="348" y="164" width="22" height="22" rx="3" opacity=".35"/><rect x="42" y="194" width="22" height="22" rx="3" opacity=".35"/><rect x="76" y="194" width="22" height="22" rx="3" opacity=".95"/><rect x="110" y="194" width="22" height="22" rx="3" opacity=".35"/><rect x="144" y="194" width="22" height="22" rx="3" opacity=".35"/><rect x="178" y="194" width="22" height="22" rx="3" opacity=".95"/><rect x="212" y="194" width="22" height="22" rx="3" opacity=".35"/><rect x="246" y="194" width="22" height="22" rx="3" opacity=".35"/><rect x="280" y="194" width="22" height="22" rx="3" opacity=".95"/><rect x="314" y="194" width="22" height="22" rx="3" opacity=".35"/><rect x="348" y="194" width="22" height="22" rx="3" opacity=".35"/><rect x="42" y="224" width="22" height="22" rx="3" opacity=".95"/><rect x="76" y="224" width="22" height="22" rx="3" opacity=".35"/><rect x="110" y="224" width="22" height="22" rx="3" opacity=".35"/><rect x="144" y="224" width="22" height="22" rx="3" opacity=".95"/><rect x="178" y="224" width="22" height="22" rx="3" opacity=".35"/><rect x="212" y="224" width="22" height="22" rx="3" opacity=".35"/><rect x="246" y="224" width="22" height="22" rx="3" opacity=".95"/><rect x="280" y="224" width="22" height="22" rx="3" opacity=".35"/><rect x="314" y="224" width="22" height="22" rx="3" opacity=".35"/><rect x="348" y="224" width="22" height="22" rx="3" opacity=".95"/>
    </g>
    <circle cx="330" cy="242" r="28" fill="#b9852b"/><circle cx="385" cy="242" r="28" fill="#9a5659"/>
  </g>
  <path d="M180 500C330 390 444 430 548 500S770 582 928 454S1190 332 1310 460" fill="none" stroke="#f0c46e" stroke-width="10" stroke-linecap="round" opacity=".82"/>
  <path d="M184 502C330 472 430 472 548 502S784 536 930 492S1192 436 1310 462" fill="none" stroke="#77a9b1" stroke-width="4" opacity=".58"/>
  <text x="112" y="548" font-family="Georgia, serif" font-size="32" fill="#f8edd8">leitmotif · loop · world-building</text>
</svg>
