<?xml version="1.0" encoding="UTF-8"?>
<svg xmlns="http://www.w3.org/2000/svg" viewBox="0 0 1440 600" role="img" aria-label="Baroque continuo, keyboard, and ornament">
  <defs>
    <filter id="grain" x="0" y="0" width="100%" height="100%">
      <feTurbulence type="fractalNoise" baseFrequency="0.78" numOctaves="2" seed="19"/>
      <feColorMatrix type="saturate" values="0"/>
      <feComponentTransfer><feFuncA type="table" tableValues="0 0.055"/></feComponentTransfer>
    </filter>
    <filter id="softShadow" x="-20%" y="-20%" width="140%" height="140%">
      <feDropShadow dx="0" dy="18" stdDeviation="18" flood-color="#34281e" flood-opacity="0.18"/>
    </filter>
    <linearGradient id="warmPaper" x1="0" y1="0" x2="1" y2="1">
      <stop offset="0" stop-color="#fbf2df"/>
      <stop offset="0.55" stop-color="#efe1c8"/>
      <stop offset="1" stop-color="#dcc8a9"/>
    </linearGradient>
    <linearGradient id="stage" x1="0" y1="0" x2="1" y2="0">
      <stop offset="0" stop-color="#6e2f2d"/>
      <stop offset="0.5" stop-color="#b86947"/>
      <stop offset="1" stop-color="#2f4053"/>
    </linearGradient>
    <pattern id="staff" width="160" height="72" patternUnits="userSpaceOnUse">
      <path d="M0 8H160 M0 20H160 M0 32H160 M0 44H160 M0 56H160" stroke="#6f655a" stroke-opacity=".25" stroke-width="2"/>
    </pattern>
    <pattern id="grid" width="48" height="48" patternUnits="userSpaceOnUse">
      <path d="M48 0H0V48" fill="none" stroke="#6f655a" stroke-opacity=".13" stroke-width="1"/>
    </pattern>
  </defs>
  <rect width="1440" height="600" fill="#f7ead2"/>
  <rect width="1440" height="600" filter="url(#grain)"/>
  <path d="M60 420C230 270 390 520 565 340S895 120 1100 260S1325 456 1390 306" fill="none" stroke="#8f5a3c" stroke-width="18" stroke-linecap="round" opacity=".22"/>
  <g transform="translate(92 378) rotate(-7)" filter="url(#softShadow)">
    <rect x="0" y="0" width="680" height="118" rx="10" fill="#2d2925"/>
    <g fill="#f9f1df">
      <rect x="12" y="10" width="30" height="94" rx="2"/><rect x="47" y="10" width="30" height="94" rx="2"/><rect x="82" y="10" width="30" height="94" rx="2"/><rect x="117" y="10" width="30" height="94" rx="2"/><rect x="152" y="10" width="30" height="94" rx="2"/><rect x="187" y="10" width="30" height="94" rx="2"/><rect x="222" y="10" width="30" height="94" rx="2"/><rect x="257" y="10" width="30" height="94" rx="2"/><rect x="292" y="10" width="30" height="94" rx="2"/><rect x="327" y="10" width="30" height="94" rx="2"/><rect x="362" y="10" width="30" height="94" rx="2"/><rect x="397" y="10" width="30" height="94" rx="2"/><rect x="432" y="10" width="30" height="94" rx="2"/><rect x="467" y="10" width="30" height="94" rx="2"/><rect x="502" y="10" width="30" height="94" rx="2"/><rect x="537" y="10" width="30" height="94" rx="2"/><rect x="572" y="10" width="30" height="94" rx="2"/><rect x="607" y="10" width="30" height="94" rx="2"/><rect x="642" y="10" width="30" height="94" rx="2"/>
    </g>
    <g fill="#1b1714">
      <rect x="34" y="10" width="18" height="58" rx="1"/><rect x="69" y="10" width="18" height="58" rx="1"/><rect x="139" y="10" width="18" height="58" rx="1"/><rect x="174" y="10" width="18" height="58" rx="1"/><rect x="209" y="10" width="18" height="58" rx="1"/><rect x="279" y="10" width="18" height="58" rx="1"/><rect x="314" y="10" width="18" height="58" rx="1"/><rect x="384" y="10" width="18" height="58" rx="1"/><rect x="419" y="10" width="18" height="58" rx="1"/><rect x="454" y="10" width="18" height="58" rx="1"/><rect x="524" y="10" width="18" height="58" rx="1"/><rect x="559" y="10" width="18" height="58" rx="1"/>
    </g>
  </g>
  <g transform="translate(760 84)" fill="none" stroke="#b9852b" stroke-width="8" stroke-linecap="round" opacity=".84">
    <path d="M0 154c48-90 142-88 142-16 0 88-128 70-128-8 0-114 190-160 286-58"/>
    <path d="M222 258c40-86 130-82 130-10 0 84-122 64-122-8 0-94 154-138 260-52"/>
  </g>
  <g stroke="#3f697d" stroke-width="5" opacity=".66" fill="none">
    <path d="M812 410h474"/>
    <path d="M820 440c84-56 150-56 234 0s150 56 234 0"/>
    <path d="M820 474c64-42 120-42 184 0s120 42 184 0"/>
  </g>
  <circle cx="1165" cy="190" r="86" fill="#fbf2df" stroke="#8f5a3c" stroke-width="4"/>
  <path d="M1115 192c36-92 120-92 100 4-18 88-114 90-100-4z" fill="none" stroke="#6f3f2c" stroke-width="7"/>
  <text x="88" y="88" font-family="Georgia, serif" font-size="38" fill="#503d2f">basso continuo</text>
</svg>
