<?xml version="1.0" encoding="UTF-8"?>
<svg xmlns="http://www.w3.org/2000/svg" viewBox="0 0 1440 600" role="img" aria-label="Early music manuscript, chant, and polyphony">
  <defs>
    <filter id="grain" x="0" y="0" width="100%" height="100%">
      <feTurbulence type="fractalNoise" baseFrequency="0.78" numOctaves="2" seed="19"/>
      <feColorMatrix type="saturate" values="0"/>
      <feComponentTransfer><feFuncA type="table" tableValues="0 0.055"/></feComponentTransfer>
    </filter>
    <filter id="softShadow" x="-20%" y="-20%" width="140%" height="140%">
      <feDropShadow dx="0" dy="18" stdDeviation="18" flood-color="#34281e" flood-opacity="0.18"/>
    </filter>
    <linearGradient id="warmPaper" x1="0" y1="0" x2="1" y2="1">
      <stop offset="0" stop-color="#fbf2df"/>
      <stop offset="0.55" stop-color="#efe1c8"/>
      <stop offset="1" stop-color="#dcc8a9"/>
    </linearGradient>
    <linearGradient id="stage" x1="0" y1="0" x2="1" y2="0">
      <stop offset="0" stop-color="#6e2f2d"/>
      <stop offset="0.5" stop-color="#b86947"/>
      <stop offset="1" stop-color="#2f4053"/>
    </linearGradient>
    <pattern id="staff" width="160" height="72" patternUnits="userSpaceOnUse">
      <path d="M0 8H160 M0 20H160 M0 32H160 M0 44H160 M0 56H160" stroke="#6f655a" stroke-opacity=".25" stroke-width="2"/>
    </pattern>
    <pattern id="grid" width="48" height="48" patternUnits="userSpaceOnUse">
      <path d="M48 0H0V48" fill="none" stroke="#6f655a" stroke-opacity=".13" stroke-width="1"/>
    </pattern>
  </defs>
  <rect width="1440" height="600" fill="url(#warmPaper)"/>
  <rect width="1440" height="600" filter="url(#grain)"/>
  <rect x="72" y="70" width="360" height="430" rx="8" fill="#f8ecd6" stroke="#9b6d38" stroke-width="3" filter="url(#softShadow)"/>
  <text x="128" y="190" font-family="Georgia, serif" font-size="132" fill="#9a3f2d">A</text>
  <path d="M130 222C210 170 280 180 340 232S455 292 535 248S695 150 830 214S1090 306 1288 186" fill="none" stroke="#7c5d35" stroke-width="6" stroke-linecap="round" opacity=".42"/>
  <g fill="#6f3f2c" opacity=".78">
    <circle cx="560" cy="245" r="9"/><circle cx="606" cy="222" r="8"/><circle cx="654" cy="238" r="9"/><circle cx="706" cy="210" r="8"/><circle cx="754" cy="224" r="9"/>
    <path d="M575 248q40 32 84 0M724 214q42 30 86 0" fill="none" stroke="#6f3f2c" stroke-width="5" stroke-linecap="round"/>
  </g>
  <rect x="505" y="314" width="810" height="120" fill="url(#staff)" opacity=".88"/>
  <g stroke="#315d67" stroke-width="6" fill="none" stroke-linecap="round" opacity=".72">
    <path d="M560 388C632 334 704 334 776 388"/>
    <path d="M638 420C710 366 782 366 854 420"/>
    <path d="M742 362C816 308 898 318 960 382"/>
  </g>
  <g fill="none" stroke="#9b6d38" stroke-width="8" opacity=".35">
    <path d="M1010 448V238c0-72 58-130 130-130s130 58 130 130v210"/>
    <path d="M1060 448V250c0-44 36-80 80-80s80 36 80 80v198"/>
  </g>
  <text x="92" y="536" font-family="Georgia, serif" font-size="25" fill="#57483a" letter-spacing="2">chant · text · space · counterpoint</text>
</svg>
