<?xml version="1.0" encoding="UTF-8"?>
<svg xmlns="http://www.w3.org/2000/svg" viewBox="0 0 1440 600" role="img" aria-label="Postwar tape, waveform, and sound mass">
  <defs>
    <filter id="grain" x="0" y="0" width="100%" height="100%">
      <feTurbulence type="fractalNoise" baseFrequency="0.78" numOctaves="2" seed="19"/>
      <feColorMatrix type="saturate" values="0"/>
      <feComponentTransfer><feFuncA type="table" tableValues="0 0.055"/></feComponentTransfer>
    </filter>
    <filter id="softShadow" x="-20%" y="-20%" width="140%" height="140%">
      <feDropShadow dx="0" dy="18" stdDeviation="18" flood-color="#34281e" flood-opacity="0.18"/>
    </filter>
    <linearGradient id="warmPaper" x1="0" y1="0" x2="1" y2="1">
      <stop offset="0" stop-color="#fbf2df"/>
      <stop offset="0.55" stop-color="#efe1c8"/>
      <stop offset="1" stop-color="#dcc8a9"/>
    </linearGradient>
    <linearGradient id="stage" x1="0" y1="0" x2="1" y2="0">
      <stop offset="0" stop-color="#6e2f2d"/>
      <stop offset="0.5" stop-color="#b86947"/>
      <stop offset="1" stop-color="#2f4053"/>
    </linearGradient>
    <pattern id="staff" width="160" height="72" patternUnits="userSpaceOnUse">
      <path d="M0 8H160 M0 20H160 M0 32H160 M0 44H160 M0 56H160" stroke="#6f655a" stroke-opacity=".25" stroke-width="2"/>
    </pattern>
    <pattern id="grid" width="48" height="48" patternUnits="userSpaceOnUse">
      <path d="M48 0H0V48" fill="none" stroke="#6f655a" stroke-opacity=".13" stroke-width="1"/>
    </pattern>
  </defs>
  <rect width="1440" height="600" fill="#e8ece9"/>
  <rect width="1440" height="600" filter="url(#grain)"/>
  <g transform="translate(84 96)" filter="url(#softShadow)">
    <rect x="0" y="0" width="500" height="320" rx="18" fill="#32393d"/>
    <circle cx="134" cy="142" r="86" fill="#eef0e8"/><circle cx="134" cy="142" r="28" fill="#32393d"/>
    <circle cx="360" cy="142" r="86" fill="#eef0e8"/><circle cx="360" cy="142" r="28" fill="#32393d"/>
    <path d="M134 142C210 240 288 240 360 142" fill="none" stroke="#c3a15f" stroke-width="12"/>
    <rect x="82" y="248" width="336" height="34" rx="17" fill="#1f2427"/>
  </g>
  <g transform="translate(660 110)" stroke="#2f4053" stroke-width="5" fill="none" stroke-linecap="round">
    <path d="M20 187.5v65" opacity="0.25"/><path d="M50 172.5v95" opacity="0.275"/><path d="M80 157.5v125" opacity="0.3"/><path d="M110 142.5v155" opacity="0.325"/><path d="M140 127.5v185" opacity="0.35"/><path d="M170 187.5v65" opacity="0.375"/><path d="M200 172.5v95" opacity="0.4"/><path d="M230 157.5v125" opacity="0.42500000000000004"/><path d="M260 142.5v155" opacity="0.45"/><path d="M290 127.5v185" opacity="0.475"/><path d="M320 187.5v65" opacity="0.5"/><path d="M350 172.5v95" opacity="0.525"/><path d="M380 157.5v125" opacity="0.55"/><path d="M410 142.5v155" opacity="0.575"/><path d="M440 127.5v185" opacity="0.6000000000000001"/><path d="M470 187.5v65" opacity="0.625"/><path d="M500 172.5v95" opacity="0.65"/><path d="M530 157.5v125" opacity="0.675"/><path d="M560 142.5v155" opacity="0.7"/><path d="M590 127.5v185" opacity="0.7250000000000001"/><path d="M620 187.5v65" opacity="0.75"/><path d="M650 172.5v95" opacity="0.775"/>
    <path d="M0 220C90 80 174 360 260 220S436 80 520 220s174 134 260 0" stroke="#9a5659" stroke-width="9" opacity=".72"/>
  </g>
  <rect x="694" y="392" width="300" height="72" fill="#fbf6eb" stroke="#6f655a" stroke-width="3"/>
  <rect x="1015" y="392" width="80" height="72" fill="#25211d"/>
  <text x="112" y="504" font-family="Georgia, serif" font-size="34" fill="#34281e">sound as material</text>
  <text x="690" y="504" font-family="Georgia, serif" font-size="24" fill="#57483a" letter-spacing="2">tape · silence · mass · electronic space</text>
</svg>
