<?xml version="1.0" encoding="UTF-8"?>
<svg xmlns="http://www.w3.org/2000/svg" viewBox="0 0 1440 600" role="img" aria-label="Interwar records, jazz rhythm, and cinema">
  <defs>
    <filter id="grain" x="0" y="0" width="100%" height="100%">
      <feTurbulence type="fractalNoise" baseFrequency="0.78" numOctaves="2" seed="19"/>
      <feColorMatrix type="saturate" values="0"/>
      <feComponentTransfer><feFuncA type="table" tableValues="0 0.055"/></feComponentTransfer>
    </filter>
    <filter id="softShadow" x="-20%" y="-20%" width="140%" height="140%">
      <feDropShadow dx="0" dy="18" stdDeviation="18" flood-color="#34281e" flood-opacity="0.18"/>
    </filter>
    <linearGradient id="warmPaper" x1="0" y1="0" x2="1" y2="1">
      <stop offset="0" stop-color="#fbf2df"/>
      <stop offset="0.55" stop-color="#efe1c8"/>
      <stop offset="1" stop-color="#dcc8a9"/>
    </linearGradient>
    <linearGradient id="stage" x1="0" y1="0" x2="1" y2="0">
      <stop offset="0" stop-color="#6e2f2d"/>
      <stop offset="0.5" stop-color="#b86947"/>
      <stop offset="1" stop-color="#2f4053"/>
    </linearGradient>
    <pattern id="staff" width="160" height="72" patternUnits="userSpaceOnUse">
      <path d="M0 8H160 M0 20H160 M0 32H160 M0 44H160 M0 56H160" stroke="#6f655a" stroke-opacity=".25" stroke-width="2"/>
    </pattern>
    <pattern id="grid" width="48" height="48" patternUnits="userSpaceOnUse">
      <path d="M48 0H0V48" fill="none" stroke="#6f655a" stroke-opacity=".13" stroke-width="1"/>
    </pattern>
  </defs>
  <rect width="1440" height="600" fill="#f0e4d3"/>
  <rect width="1440" height="600" filter="url(#grain)"/>
  <g transform="translate(104 82)" filter="url(#softShadow)">
    <circle cx="210" cy="210" r="174" fill="#29241f"/>
    <circle cx="210" cy="210" r="118" fill="none" stroke="#66594d" stroke-width="3"/>
    <circle cx="210" cy="210" r="54" fill="#b9852b"/>
    <circle cx="210" cy="210" r="12" fill="#29241f"/>
    <path d="M346 112c102 38 162 116 178 230" fill="none" stroke="#6f655a" stroke-width="12" stroke-linecap="round"/>
    <circle cx="536" cy="360" r="22" fill="#6f655a"/>
  </g>
  <g transform="translate(704 78)" fill="#222" opacity=".92" filter="url(#softShadow)">
    <rect x="0" y="0" width="574" height="358" rx="8"/>
    <rect x="54" y="50" width="466" height="258" fill="#e8dcc6"/>
    <rect x="18" y="18" width="38" height="22" fill="#e8dcc6"/><rect x="96" y="18" width="38" height="22" fill="#e8dcc6"/><rect x="174" y="18" width="38" height="22" fill="#e8dcc6"/><rect x="252" y="18" width="38" height="22" fill="#e8dcc6"/><rect x="330" y="18" width="38" height="22" fill="#e8dcc6"/><rect x="408" y="18" width="38" height="22" fill="#e8dcc6"/><rect x="486" y="18" width="38" height="22" fill="#e8dcc6"/>
    <rect x="18" y="318" width="38" height="22" fill="#e8dcc6"/><rect x="96" y="318" width="38" height="22" fill="#e8dcc6"/><rect x="174" y="318" width="38" height="22" fill="#e8dcc6"/><rect x="252" y="318" width="38" height="22" fill="#e8dcc6"/><rect x="330" y="318" width="38" height="22" fill="#e8dcc6"/><rect x="408" y="318" width="38" height="22" fill="#e8dcc6"/><rect x="486" y="318" width="38" height="22" fill="#e8dcc6"/>
  </g>
  <g fill="none" stroke-linecap="round" stroke-width="8" opacity=".74">
    <path d="M690 478c60-80 118-80 176 0s118 80 176 0 118-80 176 0" stroke="#3f697d"/>
    <path d="M712 518h42m78 0h118m52 0h42m78 0h118" stroke="#9a5659"/>
  </g>
  <text x="730" y="214" font-family="Georgia, serif" font-size="38" fill="#34281e">film frame</text>
  <text x="730" y="262" font-family="Georgia, serif" font-size="26" fill="#57483a">jazz pulse · radio · 78 rpm</text>
</svg>
