<?xml version="1.0" encoding="UTF-8"?>
<svg xmlns="http://www.w3.org/2000/svg" viewBox="0 0 1440 600" role="img" aria-label="Minimalism phase and repetition">
  <defs>
    <filter id="grain" x="0" y="0" width="100%" height="100%">
      <feTurbulence type="fractalNoise" baseFrequency="0.78" numOctaves="2" seed="19"/>
      <feColorMatrix type="saturate" values="0"/>
      <feComponentTransfer><feFuncA type="table" tableValues="0 0.055"/></feComponentTransfer>
    </filter>
    <filter id="softShadow" x="-20%" y="-20%" width="140%" height="140%">
      <feDropShadow dx="0" dy="18" stdDeviation="18" flood-color="#34281e" flood-opacity="0.18"/>
    </filter>
    <linearGradient id="warmPaper" x1="0" y1="0" x2="1" y2="1">
      <stop offset="0" stop-color="#fbf2df"/>
      <stop offset="0.55" stop-color="#efe1c8"/>
      <stop offset="1" stop-color="#dcc8a9"/>
    </linearGradient>
    <linearGradient id="stage" x1="0" y1="0" x2="1" y2="0">
      <stop offset="0" stop-color="#6e2f2d"/>
      <stop offset="0.5" stop-color="#b86947"/>
      <stop offset="1" stop-color="#2f4053"/>
    </linearGradient>
    <pattern id="staff" width="160" height="72" patternUnits="userSpaceOnUse">
      <path d="M0 8H160 M0 20H160 M0 32H160 M0 44H160 M0 56H160" stroke="#6f655a" stroke-opacity=".25" stroke-width="2"/>
    </pattern>
    <pattern id="grid" width="48" height="48" patternUnits="userSpaceOnUse">
      <path d="M48 0H0V48" fill="none" stroke="#6f655a" stroke-opacity=".13" stroke-width="1"/>
    </pattern>
  </defs>
  <rect width="1440" height="600" fill="#f8f1df"/>
  <rect width="1440" height="600" fill="url(#grid)"/>
  <rect width="1440" height="600" filter="url(#grain)"/>
  <g transform="translate(118 88)" filter="url(#softShadow)">
    <rect x="0" y="0" width="40" height="20" rx="10" fill="#b9852b" opacity="0.46"/><rect x="62" y="0" width="40" height="20" rx="10" fill="#d9c7a5" opacity="0.46"/><rect x="124" y="0" width="40" height="20" rx="10" fill="#d9c7a5" opacity="0.46"/><rect x="186" y="0" width="40" height="20" rx="10" fill="#3f697d" opacity="0.46"/><rect x="248" y="0" width="40" height="20" rx="10" fill="#d9c7a5" opacity="0.46"/><rect x="310" y="0" width="40" height="20" rx="10" fill="#b9852b" opacity="0.46"/><rect x="372" y="0" width="40" height="20" rx="10" fill="#3f697d" opacity="0.46"/><rect x="434" y="0" width="40" height="20" rx="10" fill="#d9c7a5" opacity="0.46"/><rect x="496" y="0" width="40" height="20" rx="10" fill="#d9c7a5" opacity="0.46"/><rect x="558" y="0" width="40" height="20" rx="10" fill="#3f697d" opacity="0.46"/><rect x="620" y="0" width="40" height="20" rx="10" fill="#b9852b" opacity="0.46"/><rect x="682" y="0" width="40" height="20" rx="10" fill="#d9c7a5" opacity="0.46"/><rect x="744" y="0" width="40" height="20" rx="10" fill="#3f697d" opacity="0.46"/><rect x="806" y="0" width="40" height="20" rx="10" fill="#d9c7a5" opacity="0.46"/><rect x="868" y="0" width="40" height="20" rx="10" fill="#d9c7a5" opacity="0.46"/><rect x="930" y="0" width="40" height="20" rx="10" fill="#b9852b" opacity="0.46"/><rect x="992" y="0" width="40" height="20" rx="10" fill="#d9c7a5" opacity="0.46"/><rect x="1054" y="0" width="40" height="20" rx="10" fill="#d9c7a5" opacity="0.46"/><rect x="7" y="35" width="40" height="20" rx="10" fill="#d9c7a5" opacity="0.495"/><rect x="69" y="35" width="40" height="20" rx="10" fill="#d9c7a5" opacity="0.495"/><rect x="131" y="35" width="40" height="20" rx="10" fill="#3f697d" opacity="0.495"/><rect x="193" y="35" width="40" height="20" rx="10" fill="#d9c7a5" opacity="0.495"/><rect x="255" y="35" width="40" height="20" rx="10" fill="#b9852b" opacity="0.495"/><rect x="317" y="35" width="40" height="20" rx="10" fill="#3f697d" opacity="0.495"/><rect x="379" y="35" width="40" height="20" rx="10" fill="#d9c7a5" opacity="0.495"/><rect x="441" y="35" width="40" height="20" rx="10" fill="#d9c7a5" opacity="0.495"/><rect x="503" y="35" width="40" height="20" rx="10" fill="#3f697d" opacity="0.495"/><rect x="565" y="35" width="40" height="20" rx="10" fill="#b9852b" opacity="0.495"/><rect x="627" y="35" width="40" height="20" rx="10" fill="#d9c7a5" opacity="0.495"/><rect x="689" y="35" width="40" height="20" rx="10" fill="#3f697d" opacity="0.495"/><rect x="751" y="35" width="40" height="20" rx="10" fill="#d9c7a5" opacity="0.495"/><rect x="813" y="35" width="40" height="20" rx="10" fill="#d9c7a5" opacity="0.495"/><rect x="875" y="35" width="40" height="20" rx="10" fill="#b9852b" opacity="0.495"/><rect x="937" y="35" width="40" height="20" rx="10" fill="#d9c7a5" opacity="0.495"/><rect x="999" y="35" width="40" height="20" rx="10" fill="#d9c7a5" opacity="0.495"/><rect x="1061" y="35" width="40" height="20" rx="10" fill="#3f697d" opacity="0.495"/><rect x="14" y="70" width="40" height="20" rx="10" fill="#d9c7a5" opacity="0.53"/><rect x="76" y="70" width="40" height="20" rx="10" fill="#3f697d" opacity="0.53"/><rect x="138" y="70" width="40" height="20" rx="10" fill="#d9c7a5" opacity="0.53"/><rect x="200" y="70" width="40" height="20" rx="10" fill="#b9852b" opacity="0.53"/><rect x="262" y="70" width="40" height="20" rx="10" fill="#3f697d" opacity="0.53"/><rect x="324" y="70" width="40" height="20" rx="10" fill="#d9c7a5" opacity="0.53"/><rect x="386" y="70" width="40" height="20" rx="10" fill="#d9c7a5" opacity="0.53"/><rect x="448" y="70" width="40" height="20" rx="10" fill="#3f697d" opacity="0.53"/><rect x="510" y="70" width="40" height="20" rx="10" fill="#b9852b" opacity="0.53"/><rect x="572" y="70" width="40" height="20" rx="10" fill="#d9c7a5" opacity="0.53"/><rect x="634" y="70" width="40" height="20" rx="10" fill="#3f697d" opacity="0.53"/><rect x="696" y="70" width="40" height="20" rx="10" fill="#d9c7a5" opacity="0.53"/><rect x="758" y="70" width="40" height="20" rx="10" fill="#d9c7a5" opacity="0.53"/><rect x="820" y="70" width="40" height="20" rx="10" fill="#b9852b" opacity="0.53"/><rect x="882" y="70" width="40" height="20" rx="10" fill="#d9c7a5" opacity="0.53"/><rect x="944" y="70" width="40" height="20" rx="10" fill="#d9c7a5" opacity="0.53"/><rect x="1006" y="70" width="40" height="20" rx="10" fill="#3f697d" opacity="0.53"/><rect x="1068" y="70" width="40" height="20" rx="10" fill="#d9c7a5" opacity="0.53"/><rect x="21" y="105" width="40" height="20" rx="10" fill="#3f697d" opacity="0.5650000000000001"/><rect x="83" y="105" width="40" height="20" rx="10" fill="#d9c7a5" opacity="0.5650000000000001"/><rect x="145" y="105" width="40" height="20" rx="10" fill="#b9852b" opacity="0.5650000000000001"/><rect x="207" y="105" width="40" height="20" rx="10" fill="#3f697d" opacity="0.5650000000000001"/><rect x="269" y="105" width="40" height="20" rx="10" fill="#d9c7a5" opacity="0.5650000000000001"/><rect x="331" y="105" width="40" height="20" rx="10" fill="#d9c7a5" opacity="0.5650000000000001"/><rect x="393" y="105" width="40" height="20" rx="10" fill="#3f697d" opacity="0.5650000000000001"/><rect x="455" y="105" width="40" height="20" rx="10" fill="#b9852b" opacity="0.5650000000000001"/><rect x="517" y="105" width="40" height="20" rx="10" fill="#d9c7a5" opacity="0.5650000000000001"/><rect x="579" y="105" width="40" height="20" rx="10" fill="#3f697d" opacity="0.5650000000000001"/><rect x="641" y="105" width="40" height="20" rx="10" fill="#d9c7a5" opacity="0.5650000000000001"/><rect x="703" y="105" width="40" height="20" rx="10" fill="#d9c7a5" opacity="0.5650000000000001"/><rect x="765" y="105" width="40" height="20" rx="10" fill="#b9852b" opacity="0.5650000000000001"/><rect x="827" y="105" width="40" height="20" rx="10" fill="#d9c7a5" opacity="0.5650000000000001"/><rect x="889" y="105" width="40" height="20" rx="10" fill="#d9c7a5" opacity="0.5650000000000001"/><rect x="951" y="105" width="40" height="20" rx="10" fill="#3f697d" opacity="0.5650000000000001"/><rect x="1013" y="105" width="40" height="20" rx="10" fill="#d9c7a5" opacity="0.5650000000000001"/><rect x="1075" y="105" width="40" height="20" rx="10" fill="#b9852b" opacity="0.5650000000000001"/><rect x="0" y="140" width="40" height="20" rx="10" fill="#d9c7a5" opacity="0.6000000000000001"/><rect x="62" y="140" width="40" height="20" rx="10" fill="#b9852b" opacity="0.6000000000000001"/><rect x="124" y="140" width="40" height="20" rx="10" fill="#3f697d" opacity="0.6000000000000001"/><rect x="186" y="140" width="40" height="20" rx="10" fill="#d9c7a5" opacity="0.6000000000000001"/><rect x="248" y="140" width="40" height="20" rx="10" fill="#d9c7a5" opacity="0.6000000000000001"/><rect x="310" y="140" width="40" height="20" rx="10" fill="#3f697d" opacity="0.6000000000000001"/><rect x="372" y="140" width="40" height="20" rx="10" fill="#b9852b" opacity="0.6000000000000001"/><rect x="434" y="140" width="40" height="20" rx="10" fill="#d9c7a5" opacity="0.6000000000000001"/><rect x="496" y="140" width="40" height="20" rx="10" fill="#3f697d" opacity="0.6000000000000001"/><rect x="558" y="140" width="40" height="20" rx="10" fill="#d9c7a5" opacity="0.6000000000000001"/><rect x="620" y="140" width="40" height="20" rx="10" fill="#d9c7a5" opacity="0.6000000000000001"/><rect x="682" y="140" width="40" height="20" rx="10" fill="#b9852b" opacity="0.6000000000000001"/><rect x="744" y="140" width="40" height="20" rx="10" fill="#d9c7a5" opacity="0.6000000000000001"/><rect x="806" y="140" width="40" height="20" rx="10" fill="#d9c7a5" opacity="0.6000000000000001"/><rect x="868" y="140" width="40" height="20" rx="10" fill="#3f697d" opacity="0.6000000000000001"/><rect x="930" y="140" width="40" height="20" rx="10" fill="#d9c7a5" opacity="0.6000000000000001"/><rect x="992" y="140" width="40" height="20" rx="10" fill="#b9852b" opacity="0.6000000000000001"/><rect x="1054" y="140" width="40" height="20" rx="10" fill="#3f697d" opacity="0.6000000000000001"/><rect x="7" y="175" width="40" height="20" rx="10" fill="#b9852b" opacity="0.635"/><rect x="69" y="175" width="40" height="20" rx="10" fill="#3f697d" opacity="0.635"/><rect x="131" y="175" width="40" height="20" rx="10" fill="#d9c7a5" opacity="0.635"/><rect x="193" y="175" width="40" height="20" rx="10" fill="#d9c7a5" opacity="0.635"/><rect x="255" y="175" width="40" height="20" rx="10" fill="#3f697d" opacity="0.635"/><rect x="317" y="175" width="40" height="20" rx="10" fill="#b9852b" opacity="0.635"/><rect x="379" y="175" width="40" height="20" rx="10" fill="#d9c7a5" opacity="0.635"/><rect x="441" y="175" width="40" height="20" rx="10" fill="#3f697d" opacity="0.635"/><rect x="503" y="175" width="40" height="20" rx="10" fill="#d9c7a5" opacity="0.635"/><rect x="565" y="175" width="40" height="20" rx="10" fill="#d9c7a5" opacity="0.635"/><rect x="627" y="175" width="40" height="20" rx="10" fill="#b9852b" opacity="0.635"/><rect x="689" y="175" width="40" height="20" rx="10" fill="#d9c7a5" opacity="0.635"/><rect x="751" y="175" width="40" height="20" rx="10" fill="#d9c7a5" opacity="0.635"/><rect x="813" y="175" width="40" height="20" rx="10" fill="#3f697d" opacity="0.635"/><rect x="875" y="175" width="40" height="20" rx="10" fill="#d9c7a5" opacity="0.635"/><rect x="937" y="175" width="40" height="20" rx="10" fill="#b9852b" opacity="0.635"/><rect x="999" y="175" width="40" height="20" rx="10" fill="#3f697d" opacity="0.635"/><rect x="1061" y="175" width="40" height="20" rx="10" fill="#d9c7a5" opacity="0.635"/><rect x="14" y="210" width="40" height="20" rx="10" fill="#3f697d" opacity="0.67"/><rect x="76" y="210" width="40" height="20" rx="10" fill="#d9c7a5" opacity="0.67"/><rect x="138" y="210" width="40" height="20" rx="10" fill="#d9c7a5" opacity="0.67"/><rect x="200" y="210" width="40" height="20" rx="10" fill="#3f697d" opacity="0.67"/><rect x="262" y="210" width="40" height="20" rx="10" fill="#b9852b" opacity="0.67"/><rect x="324" y="210" width="40" height="20" rx="10" fill="#d9c7a5" opacity="0.67"/><rect x="386" y="210" width="40" height="20" rx="10" fill="#3f697d" opacity="0.67"/><rect x="448" y="210" width="40" height="20" rx="10" fill="#d9c7a5" opacity="0.67"/><rect x="510" y="210" width="40" height="20" rx="10" fill="#d9c7a5" opacity="0.67"/><rect x="572" y="210" width="40" height="20" rx="10" fill="#b9852b" opacity="0.67"/><rect x="634" y="210" width="40" height="20" rx="10" fill="#d9c7a5" opacity="0.67"/><rect x="696" y="210" width="40" height="20" rx="10" fill="#d9c7a5" opacity="0.67"/><rect x="758" y="210" width="40" height="20" rx="10" fill="#3f697d" opacity="0.67"/><rect x="820" y="210" width="40" height="20" rx="10" fill="#d9c7a5" opacity="0.67"/><rect x="882" y="210" width="40" height="20" rx="10" fill="#b9852b" opacity="0.67"/><rect x="944" y="210" width="40" height="20" rx="10" fill="#3f697d" opacity="0.67"/><rect x="1006" y="210" width="40" height="20" rx="10" fill="#d9c7a5" opacity="0.67"/><rect x="1068" y="210" width="40" height="20" rx="10" fill="#d9c7a5" opacity="0.67"/><rect x="21" y="245" width="40" height="20" rx="10" fill="#d9c7a5" opacity="0.7050000000000001"/><rect x="83" y="245" width="40" height="20" rx="10" fill="#d9c7a5" opacity="0.7050000000000001"/><rect x="145" y="245" width="40" height="20" rx="10" fill="#3f697d" opacity="0.7050000000000001"/><rect x="207" y="245" width="40" height="20" rx="10" fill="#b9852b" opacity="0.7050000000000001"/><rect x="269" y="245" width="40" height="20" rx="10" fill="#d9c7a5" opacity="0.7050000000000001"/><rect x="331" y="245" width="40" height="20" rx="10" fill="#3f697d" opacity="0.7050000000000001"/><rect x="393" y="245" width="40" height="20" rx="10" fill="#d9c7a5" opacity="0.7050000000000001"/><rect x="455" y="245" width="40" height="20" rx="10" fill="#d9c7a5" opacity="0.7050000000000001"/><rect x="517" y="245" width="40" height="20" rx="10" fill="#b9852b" opacity="0.7050000000000001"/><rect x="579" y="245" width="40" height="20" rx="10" fill="#d9c7a5" opacity="0.7050000000000001"/><rect x="641" y="245" width="40" height="20" rx="10" fill="#d9c7a5" opacity="0.7050000000000001"/><rect x="703" y="245" width="40" height="20" rx="10" fill="#3f697d" opacity="0.7050000000000001"/><rect x="765" y="245" width="40" height="20" rx="10" fill="#d9c7a5" opacity="0.7050000000000001"/><rect x="827" y="245" width="40" height="20" rx="10" fill="#b9852b" opacity="0.7050000000000001"/><rect x="889" y="245" width="40" height="20" rx="10" fill="#3f697d" opacity="0.7050000000000001"/><rect x="951" y="245" width="40" height="20" rx="10" fill="#d9c7a5" opacity="0.7050000000000001"/><rect x="1013" y="245" width="40" height="20" rx="10" fill="#d9c7a5" opacity="0.7050000000000001"/><rect x="1075" y="245" width="40" height="20" rx="10" fill="#3f697d" opacity="0.7050000000000001"/><rect x="0" y="280" width="40" height="20" rx="10" fill="#d9c7a5" opacity="0.74"/><rect x="62" y="280" width="40" height="20" rx="10" fill="#3f697d" opacity="0.74"/><rect x="124" y="280" width="40" height="20" rx="10" fill="#b9852b" opacity="0.74"/><rect x="186" y="280" width="40" height="20" rx="10" fill="#d9c7a5" opacity="0.74"/><rect x="248" y="280" width="40" height="20" rx="10" fill="#3f697d" opacity="0.74"/><rect x="310" y="280" width="40" height="20" rx="10" fill="#d9c7a5" opacity="0.74"/><rect x="372" y="280" width="40" height="20" rx="10" fill="#d9c7a5" opacity="0.74"/><rect x="434" y="280" width="40" height="20" rx="10" fill="#b9852b" opacity="0.74"/><rect x="496" y="280" width="40" height="20" rx="10" fill="#d9c7a5" opacity="0.74"/><rect x="558" y="280" width="40" height="20" rx="10" fill="#d9c7a5" opacity="0.74"/><rect x="620" y="280" width="40" height="20" rx="10" fill="#3f697d" opacity="0.74"/><rect x="682" y="280" width="40" height="20" rx="10" fill="#d9c7a5" opacity="0.74"/><rect x="744" y="280" width="40" height="20" rx="10" fill="#b9852b" opacity="0.74"/><rect x="806" y="280" width="40" height="20" rx="10" fill="#3f697d" opacity="0.74"/><rect x="868" y="280" width="40" height="20" rx="10" fill="#d9c7a5" opacity="0.74"/><rect x="930" y="280" width="40" height="20" rx="10" fill="#d9c7a5" opacity="0.74"/><rect x="992" y="280" width="40" height="20" rx="10" fill="#3f697d" opacity="0.74"/><rect x="1054" y="280" width="40" height="20" rx="10" fill="#b9852b" opacity="0.74"/><rect x="7" y="315" width="40" height="20" rx="10" fill="#3f697d" opacity="0.7750000000000001"/><rect x="69" y="315" width="40" height="20" rx="10" fill="#b9852b" opacity="0.7750000000000001"/><rect x="131" y="315" width="40" height="20" rx="10" fill="#d9c7a5" opacity="0.7750000000000001"/><rect x="193" y="315" width="40" height="20" rx="10" fill="#3f697d" opacity="0.7750000000000001"/><rect x="255" y="315" width="40" height="20" rx="10" fill="#d9c7a5" opacity="0.7750000000000001"/><rect x="317" y="315" width="40" height="20" rx="10" fill="#d9c7a5" opacity="0.7750000000000001"/><rect x="379" y="315" width="40" height="20" rx="10" fill="#b9852b" opacity="0.7750000000000001"/><rect x="441" y="315" width="40" height="20" rx="10" fill="#d9c7a5" opacity="0.7750000000000001"/><rect x="503" y="315" width="40" height="20" rx="10" fill="#d9c7a5" opacity="0.7750000000000001"/><rect x="565" y="315" width="40" height="20" rx="10" fill="#3f697d" opacity="0.7750000000000001"/><rect x="627" y="315" width="40" height="20" rx="10" fill="#d9c7a5" opacity="0.7750000000000001"/><rect x="689" y="315" width="40" height="20" rx="10" fill="#b9852b" opacity="0.7750000000000001"/><rect x="751" y="315" width="40" height="20" rx="10" fill="#3f697d" opacity="0.7750000000000001"/><rect x="813" y="315" width="40" height="20" rx="10" fill="#d9c7a5" opacity="0.7750000000000001"/><rect x="875" y="315" width="40" height="20" rx="10" fill="#d9c7a5" opacity="0.7750000000000001"/><rect x="937" y="315" width="40" height="20" rx="10" fill="#3f697d" opacity="0.7750000000000001"/><rect x="999" y="315" width="40" height="20" rx="10" fill="#b9852b" opacity="0.7750000000000001"/><rect x="1061" y="315" width="40" height="20" rx="10" fill="#d9c7a5" opacity="0.7750000000000001"/><rect x="14" y="350" width="40" height="20" rx="10" fill="#b9852b" opacity="0.81"/><rect x="76" y="350" width="40" height="20" rx="10" fill="#d9c7a5" opacity="0.81"/><rect x="138" y="350" width="40" height="20" rx="10" fill="#3f697d" opacity="0.81"/><rect x="200" y="350" width="40" height="20" rx="10" fill="#d9c7a5" opacity="0.81"/><rect x="262" y="350" width="40" height="20" rx="10" fill="#d9c7a5" opacity="0.81"/><rect x="324" y="350" width="40" height="20" rx="10" fill="#b9852b" opacity="0.81"/><rect x="386" y="350" width="40" height="20" rx="10" fill="#d9c7a5" opacity="0.81"/><rect x="448" y="350" width="40" height="20" rx="10" fill="#d9c7a5" opacity="0.81"/><rect x="510" y="350" width="40" height="20" rx="10" fill="#3f697d" opacity="0.81"/><rect x="572" y="350" width="40" height="20" rx="10" fill="#d9c7a5" opacity="0.81"/><rect x="634" y="350" width="40" height="20" rx="10" fill="#b9852b" opacity="0.81"/><rect x="696" y="350" width="40" height="20" rx="10" fill="#3f697d" opacity="0.81"/><rect x="758" y="350" width="40" height="20" rx="10" fill="#d9c7a5" opacity="0.81"/><rect x="820" y="350" width="40" height="20" rx="10" fill="#d9c7a5" opacity="0.81"/><rect x="882" y="350" width="40" height="20" rx="10" fill="#3f697d" opacity="0.81"/><rect x="944" y="350" width="40" height="20" rx="10" fill="#b9852b" opacity="0.81"/><rect x="1006" y="350" width="40" height="20" rx="10" fill="#d9c7a5" opacity="0.81"/><rect x="1068" y="350" width="40" height="20" rx="10" fill="#3f697d" opacity="0.81"/><rect x="21" y="385" width="40" height="20" rx="10" fill="#d9c7a5" opacity="0.845"/><rect x="83" y="385" width="40" height="20" rx="10" fill="#3f697d" opacity="0.845"/><rect x="145" y="385" width="40" height="20" rx="10" fill="#d9c7a5" opacity="0.845"/><rect x="207" y="385" width="40" height="20" rx="10" fill="#d9c7a5" opacity="0.845"/><rect x="269" y="385" width="40" height="20" rx="10" fill="#b9852b" opacity="0.845"/><rect x="331" y="385" width="40" height="20" rx="10" fill="#d9c7a5" opacity="0.845"/><rect x="393" y="385" width="40" height="20" rx="10" fill="#d9c7a5" opacity="0.845"/><rect x="455" y="385" width="40" height="20" rx="10" fill="#3f697d" opacity="0.845"/><rect x="517" y="385" width="40" height="20" rx="10" fill="#d9c7a5" opacity="0.845"/><rect x="579" y="385" width="40" height="20" rx="10" fill="#b9852b" opacity="0.845"/><rect x="641" y="385" width="40" height="20" rx="10" fill="#3f697d" opacity="0.845"/><rect x="703" y="385" width="40" height="20" rx="10" fill="#d9c7a5" opacity="0.845"/><rect x="765" y="385" width="40" height="20" rx="10" fill="#d9c7a5" opacity="0.845"/><rect x="827" y="385" width="40" height="20" rx="10" fill="#3f697d" opacity="0.845"/><rect x="889" y="385" width="40" height="20" rx="10" fill="#b9852b" opacity="0.845"/><rect x="951" y="385" width="40" height="20" rx="10" fill="#d9c7a5" opacity="0.845"/><rect x="1013" y="385" width="40" height="20" rx="10" fill="#3f697d" opacity="0.845"/><rect x="1075" y="385" width="40" height="20" rx="10" fill="#d9c7a5" opacity="0.845"/>
  </g>
  <g fill="none" stroke="#25211d" stroke-width="5" stroke-linecap="round" opacity=".62">
    <path d="M160 492h1100"/>
    <path d="M160 522h1100"/>
    <path d="M160 552h1100"/>
  </g>
  <g fill="#3f7d72" opacity=".75">
    <circle cx="230" cy="492" r="11"/><circle cx="292" cy="492" r="11"/><circle cx="354" cy="492" r="11"/><circle cx="416" cy="492" r="11"/>
    <circle cx="237" cy="522" r="11"/><circle cx="299" cy="522" r="11"/><circle cx="361" cy="522" r="11"/><circle cx="423" cy="522" r="11"/>
    <circle cx="246" cy="552" r="11"/><circle cx="308" cy="552" r="11"/><circle cx="370" cy="552" r="11"/><circle cx="432" cy="552" r="11"/>
  </g>
  <text x="96" y="80" font-family="Georgia, serif" font-size="38" fill="#34281e">repetition makes change audible</text>
  <text x="1010" y="548" font-family="Georgia, serif" font-size="26" fill="#57483a">phase shift</text>
</svg>
